<svg aria-hidden="true" style="position: absolute; width: 0; height: 0; overflow: hidden;" version="1.1" xmlns="http://www.w3.org/2000/svg" xmlns:xlink="http://www.w3.org/1999/xlink">
<defs>
<symbol id="telegram" viewBox="0 0 32 32">
<path fill="#fff" style="fill: var(--color1, #fff)" d="M31.376 0c-0.191 0-0.422 0.054-0.691 0.168l-29.833 12.659c-1.074 0.456-1.142 1.334-0.151 1.951l8.43 5.251c0.991 0.617 2.301 1.94 2.912 2.939l5.053 8.274c0.29 0.474 0.64 0.71 0.977 0.71 0.372 0 0.727-0.286 0.97-0.851l12.758-29.805c0.345-0.809 0.148-1.297-0.426-1.297zM10.174 18.248l-6.833-4.257 22.925-9.726-14.756 15.006c-0.451-0.4-0.909-0.757-1.337-1.023zM17.898 28.602l-4.076-6.672c-0.241-0.394-0.558-0.814-0.912-1.231l14.825-15.075-9.837 22.978z"></path>
</symbol>
<symbol id="dowland" viewBox="0 0 9 32">
<path  d="M0 28.369v-0.875c0.019-0.071 0.051-0.135 0.064-0.206 0.283-1.841 1.815-3.296 3.611-3.418 2.008-0.142 3.708 1.004 4.262 2.871 0.071 0.245 0.122 0.502 0.187 0.753v0.875c-0.019 0.058-0.052 0.109-0.058 0.174-0.277 1.7-1.5 2.993-3.174 3.36-0.129 0.026-0.258 0.064-0.386 0.097h-0.875c-0.058-0.019-0.116-0.052-0.174-0.058-1.674-0.27-2.948-1.461-3.335-3.116-0.039-0.161-0.084-0.309-0.122-0.457h0zM8.124 3.624l-0 0.876c-0.019 0.071-0.052 0.135-0.058 0.206-0.29 1.854-1.828 3.302-3.644 3.418-2.002 0.129-3.695-1.030-4.242-2.903-0.071-0.238-0.122-0.483-0.18-0.721v-0.875c0.019-0.058 0.051-0.109 0.064-0.167 0.309-1.674 1.281-2.768 2.903-3.289 0.212-0.071 0.438-0.109 0.657-0.167h0.875c0.058 0.019 0.116 0.051 0.174 0.058 1.68 0.277 2.948 1.461 3.335 3.116 0.039 0.155 0.077 0.303 0.116 0.451zM8.124 15.559v0.876c-0.019 0.071-0.052 0.135-0.064 0.206-0.29 1.848-1.886 3.334-3.689 3.412-2.028 0.090-3.747-1.133-4.229-3.019-0.051-0.2-0.097-0.399-0.142-0.599v-0.876c0.019-0.071 0.051-0.135 0.064-0.206 0.283-1.848 1.886-3.335 3.689-3.418 2.028-0.097 3.747 1.133 4.229 3.019 0.052 0.206 0.097 0.405 0.142 0.605z"></path>
</symbol>
<symbol id="pause" viewBox="0 0 32 32">
<path fill="#fff" style="fill: var(--color1, #fff)" d="M13.007 0h-7.006c-0.552 0-1 0.448-1 1v30c0 0.552 0.448 1 1 1h7.006c0.553 0 1-0.448 1-1v-30c0-0.552-0.447-1-1-1zM12.007 30h-5.006v-28h5.006v28zM25.996 0h-6.971c-0.552 0-1 0.448-1 1v30c0 0.552 0.448 1 1 1h6.971c0.552 0 1-0.448 1-1v-30c0-0.552-0.447-1-1-1zM24.996 30h-4.971v-28h4.971v28z"></path>
</symbol>
<symbol id="play" viewBox="0 0 32 32">
<path fill="#fff" style="fill: var(--color1, #fff)" d="M9.037 2.005l19.285 13.994-19.311 13.995 0.026-27.989zM9.037 0c-0.285-0-0.566 0.087-0.815 0.253-0.533 0.353-0.863 1.025-0.863 1.753l-0.026 27.989c-0 0.358 0.080 0.709 0.232 1.017s0.37 0.562 0.631 0.736c0.249 0.166 0.53 0.253 0.815 0.253 0.307 0 0.615-0.101 0.885-0.303l19.311-13.995c0.242-0.18 0.443-0.43 0.581-0.728s0.212-0.633 0.212-0.974c0-0.693-0.3-1.337-0.793-1.703l-19.285-13.995c-0.266-0.197-0.572-0.302-0.885-0.302l-0-0z"></path>
</symbol>
<symbol id="burger" viewBox="0 0 32 32">
<path d="M0 2h32v4h-32zM12 8h20v4h-20zM12 20h20v4h-20zM0 14h32v4h-32zM0 26h32v4h-32z"></path>
</symbol>
</defs>
</svg>
