<svg aria-hidden="true" style="position: absolute; width: 0; height: 0; overflow: hidden;" version="1.1" xmlns="http://www.w3.org/2000/svg" xmlns:xlink="http://www.w3.org/1999/xlink">
<defs>
<symbol id="up" viewBox="0 0 32 32">
<path d="M14.667 11.219v12.781h2.667v-12.781l5.724 5.724 1.885-1.885-8.943-8.943-8.943 8.943 1.885 1.885 5.724-5.724z"></path>
</symbol>
<symbol id="telegram" viewBox="0 0 32 32">
<path fill="#fff" style="fill: var(--color1, #fff)" d="M31.376 0c-0.191 0-0.422 0.054-0.691 0.168l-29.833 12.659c-1.074 0.456-1.142 1.334-0.151 1.951l8.43 5.251c0.991 0.617 2.301 1.94 2.912 2.939l5.053 8.274c0.29 0.474 0.64 0.71 0.977 0.71 0.372 0 0.727-0.286 0.97-0.851l12.758-29.805c0.345-0.809 0.148-1.297-0.426-1.297zM10.174 18.248l-6.833-4.257 22.925-9.726-14.756 15.006c-0.451-0.4-0.909-0.757-1.337-1.023zM17.898 28.602l-4.076-6.672c-0.241-0.394-0.558-0.814-0.912-1.231l14.825-15.075-9.837 22.978z"></path>
</symbol>
<symbol id="dowland" viewBox="0 0 9 32">
<path  d="M0 28.369v-0.875c0.019-0.071 0.051-0.135 0.064-0.206 0.283-1.841 1.815-3.296 3.611-3.418 2.008-0.142 3.708 1.004 4.262 2.871 0.071 0.245 0.122 0.502 0.187 0.753v0.875c-0.019 0.058-0.052 0.109-0.058 0.174-0.277 1.7-1.5 2.993-3.174 3.36-0.129 0.026-0.258 0.064-0.386 0.097h-0.875c-0.058-0.019-0.116-0.052-0.174-0.058-1.674-0.27-2.948-1.461-3.335-3.116-0.039-0.161-0.084-0.309-0.122-0.457h0zM8.124 3.624l-0 0.876c-0.019 0.071-0.052 0.135-0.058 0.206-0.29 1.854-1.828 3.302-3.644 3.418-2.002 0.129-3.695-1.030-4.242-2.903-0.071-0.238-0.122-0.483-0.18-0.721v-0.875c0.019-0.058 0.051-0.109 0.064-0.167 0.309-1.674 1.281-2.768 2.903-3.289 0.212-0.071 0.438-0.109 0.657-0.167h0.875c0.058 0.019 0.116 0.051 0.174 0.058 1.68 0.277 2.948 1.461 3.335 3.116 0.039 0.155 0.077 0.303 0.116 0.451zM8.124 15.559v0.876c-0.019 0.071-0.052 0.135-0.064 0.206-0.29 1.848-1.886 3.334-3.689 3.412-2.028 0.090-3.747-1.133-4.229-3.019-0.051-0.2-0.097-0.399-0.142-0.599v-0.876c0.019-0.071 0.051-0.135 0.064-0.206 0.283-1.848 1.886-3.335 3.689-3.418 2.028-0.097 3.747 1.133 4.229 3.019 0.052 0.206 0.097 0.405 0.142 0.605z"></path>
</symbol>
<symbol id="pause" viewBox="0 0 32 32">
<path fill="#fff" style="fill: var(--color1, #fff)" d="M13.007 0h-7.006c-0.552 0-1 0.448-1 1v30c0 0.552 0.448 1 1 1h7.006c0.553 0 1-0.448 1-1v-30c0-0.552-0.447-1-1-1zM12.007 30h-5.006v-28h5.006v28zM25.996 0h-6.971c-0.552 0-1 0.448-1 1v30c0 0.552 0.448 1 1 1h6.971c0.552 0 1-0.448 1-1v-30c0-0.552-0.447-1-1-1zM24.996 30h-4.971v-28h4.971v28z"></path>
</symbol>
<symbol id="play" viewBox="0 0 32 32">
<path fill="#fff" style="fill: var(--color1, #fff)" d="M9.037 2.005l19.285 13.994-19.311 13.995 0.026-27.989zM9.037 0c-0.285-0-0.566 0.087-0.815 0.253-0.533 0.353-0.863 1.025-0.863 1.753l-0.026 27.989c-0 0.358 0.080 0.709 0.232 1.017s0.37 0.562 0.631 0.736c0.249 0.166 0.53 0.253 0.815 0.253 0.307 0 0.615-0.101 0.885-0.303l19.311-13.995c0.242-0.18 0.443-0.43 0.581-0.728s0.212-0.633 0.212-0.974c0-0.693-0.3-1.337-0.793-1.703l-19.285-13.995c-0.266-0.197-0.572-0.302-0.885-0.302l-0-0z"></path>
</symbol>
<symbol id="burger" viewBox="0 0 61 32">
<path stroke-linejoin="round" stroke-linecap="round" stroke-miterlimit="10" stroke-width="2.9091" d="M1.455 1.455h58.182M1.455 16h58.182M1.455 30.545h58.182"></path>
</symbol>
<symbol id="applemusic" viewBox="0 0 32 32">
<path d="M31.996 8.165c0-0.984-0.087-1.96-0.32-2.92-0.423-1.747-1.416-3.080-2.907-4.057-0.765-0.499-1.605-0.808-2.503-0.969-0.689-0.124-1.384-0.18-2.085-0.2-0.053-0.004-0.111-0.013-0.165-0.017h-16.032c-0.203 0.013-0.404 0.023-0.607 0.035-0.996 0.057-1.987 0.164-2.924 0.535-1.781 0.707-3.067 1.936-3.82 3.707-0.256 0.597-0.389 1.233-0.484 1.877-0.075 0.523-0.117 1.047-0.133 1.573 0 0.043-0.009 0.083-0.013 0.124v16.297c0.013 0.187 0.023 0.377 0.036 0.565 0.067 1.087 0.205 2.165 0.663 3.164 0.867 1.893 2.317 3.137 4.312 3.736 0.56 0.169 1.141 0.249 1.724 0.304 0.74 0.071 1.48 0.080 2.223 0.080h14.707c0.7 0 1.397-0.045 2.093-0.133 1.097-0.141 2.129-0.467 3.061-1.080 1.12-0.737 1.963-1.716 2.507-2.944 0.248-0.56 0.391-1.16 0.493-1.765 0.151-0.9 0.184-1.811 0.183-2.72-0.003-5.067 0-10.127-0.008-15.191zM23.432 13.485v7.616c0 0.556-0.077 1.103-0.325 1.608-0.387 0.787-1.013 1.283-1.851 1.52-0.467 0.133-0.941 0.209-1.427 0.231-1.267 0.060-2.364-0.8-2.591-2.048-0.189-1.031 0.303-2.165 1.384-2.696 0.431-0.213 0.893-0.333 1.357-0.432 0.504-0.109 1.011-0.204 1.512-0.32 0.365-0.084 0.609-0.307 0.68-0.688 0.019-0.084 0.027-0.173 0.027-0.257 0-2.42 0-4.84-0.003-7.257 0-0.083-0.013-0.167-0.035-0.247-0.053-0.2-0.2-0.324-0.405-0.312-0.213 0.013-0.424 0.047-0.633 0.088-1.013 0.2-2.027 0.404-3.040 0.608l-4.933 0.997c-0.021 0.004-0.043 0.013-0.064 0.017-0.369 0.103-0.503 0.271-0.52 0.653-0.003 0.056 0 0.115 0 0.173-0.003 3.469 0 6.939-0.004 10.407 0 0.56-0.063 1.115-0.287 1.636-0.371 0.853-1.027 1.387-1.912 1.644-0.467 0.133-0.947 0.213-1.433 0.229-1.28 0.048-2.34-0.8-2.56-2.059-0.187-1.083 0.307-2.247 1.539-2.767 0.476-0.2 0.973-0.309 1.477-0.413 0.383-0.080 0.767-0.155 1.147-0.236 0.511-0.111 0.777-0.431 0.8-0.952v-0.2c0-3.947 0-7.896 0.003-11.843 0-0.164 0.017-0.333 0.056-0.493 0.093-0.38 0.364-0.597 0.728-0.691 0.34-0.088 0.687-0.149 1.032-0.22 0.977-0.2 1.955-0.395 2.933-0.592l3.027-0.613c0.893-0.179 1.787-0.36 2.68-0.537 0.293-0.057 0.591-0.117 0.885-0.141 0.413-0.033 0.697 0.227 0.739 0.643 0.011 0.097 0.016 0.197 0.016 0.297 0.003 2.547 0.003 5.096 0.001 7.647z"></path>
</symbol>
<symbol id="gmail" viewBox="0 0 32 32">
<path fill="#d14836" style="fill: var(--color1, #d14836)" d="M32 6v20c0 1.133-0.867 2-2 2h-2v-18.151l-12 8.617-12-8.617v18.151h-2c-1.135 0-2-0.867-2-2v-20c0-0.567 0.216-1.067 0.575-1.424 0.359-0.363 0.86-0.576 1.425-0.576h0.667l13.333 9.667 13.333-9.667h0.667c0.567 0 1.067 0.216 1.425 0.576 0.36 0.357 0.575 0.857 0.575 1.424z"></path>
</symbol>
<symbol id="instagram" viewBox="0 0 32 32">
<path fill="#e4405f" style="fill: var(--color2, #e4405f)" d="M16 0c-4.347 0-4.889 0.020-6.596 0.096-1.704 0.080-2.864 0.348-3.884 0.744-1.052 0.408-1.945 0.956-2.835 1.845s-1.439 1.781-1.845 2.835c-0.396 1.020-0.665 2.18-0.744 3.884-0.080 1.707-0.096 2.249-0.096 6.596s0.020 4.889 0.096 6.596c0.080 1.703 0.348 2.864 0.744 3.884 0.408 1.051 0.956 1.945 1.845 2.835 0.889 0.888 1.781 1.439 2.835 1.845 1.021 0.395 2.181 0.665 3.884 0.744 1.707 0.080 2.249 0.096 6.596 0.096s4.889-0.020 6.596-0.096c1.703-0.080 2.864-0.349 3.884-0.744 1.051-0.408 1.945-0.957 2.835-1.845 0.888-0.889 1.439-1.78 1.845-2.835 0.395-1.020 0.665-2.181 0.744-3.884 0.080-1.707 0.096-2.249 0.096-6.596s-0.020-4.889-0.096-6.596c-0.080-1.703-0.349-2.865-0.744-3.884-0.408-1.052-0.957-1.945-1.845-2.835-0.889-0.889-1.78-1.439-2.835-1.845-1.020-0.396-2.181-0.665-3.884-0.744-1.707-0.080-2.249-0.096-6.596-0.096zM16 2.88c4.271 0 4.78 0.021 6.467 0.095 1.56 0.073 2.407 0.332 2.969 0.553 0.749 0.289 1.28 0.636 1.843 1.195 0.559 0.56 0.905 1.092 1.195 1.841 0.219 0.563 0.48 1.409 0.551 2.969 0.076 1.688 0.093 2.195 0.093 6.467s-0.020 4.78-0.099 6.467c-0.081 1.56-0.341 2.407-0.561 2.969-0.299 0.749-0.639 1.28-1.199 1.843-0.559 0.559-1.099 0.905-1.84 1.195-0.56 0.219-1.42 0.48-2.98 0.551-1.699 0.076-2.199 0.093-6.479 0.093-4.281 0-4.781-0.020-6.479-0.099-1.561-0.081-2.421-0.341-2.981-0.561-0.759-0.299-1.28-0.639-1.839-1.199-0.561-0.559-0.92-1.099-1.2-1.84-0.22-0.56-0.479-1.42-0.56-2.98-0.060-1.68-0.081-2.199-0.081-6.459 0-4.261 0.021-4.781 0.081-6.481 0.081-1.56 0.34-2.419 0.56-2.979 0.28-0.76 0.639-1.28 1.2-1.841 0.559-0.559 1.080-0.919 1.839-1.197 0.56-0.221 1.401-0.481 2.961-0.561 1.7-0.060 2.2-0.080 6.479-0.080zM16 7.784c-4.54 0-8.216 3.68-8.216 8.216 0 4.54 3.68 8.216 8.216 8.216 4.54 0 8.216-3.68 8.216-8.216 0-4.54-3.68-8.216-8.216-8.216zM16 21.333c-2.947 0-5.333-2.387-5.333-5.333s2.387-5.333 5.333-5.333 5.333 2.387 5.333 5.333-2.387 5.333-5.333 5.333zM26.461 7.46c0 1.060-0.861 1.92-1.92 1.92-1.060 0-1.92-0.861-1.92-1.92s0.861-1.919 1.92-1.919c1.057-0.001 1.92 0.86 1.92 1.919z"></path>
</symbol>
<symbol id="reverbnation" viewBox="0 0 32 32">
<path fill="#e21a2c" style="fill: var(--color3, #e21a2c)" d="M16.020 0.832l-3.767 11.559h-12.253l9.927 7.179-3.759 11.564 9.832-7.152 9.896 7.191-3.78-11.617 9.884-7.165h-12.216l-3.764-11.56z"></path>
</symbol>
<symbol id="soundcloud" viewBox="0 0 32 32">
<path fill="#f30" style="fill: var(--color5, #f30)" d="M1.567 16.3c-0.068 0-0.125 0.061-0.135 0.133l-0.311 2.872 0.311 2.807c0.009 0.077 0.067 0.131 0.135 0.131 0.067 0 0.12-0.053 0.132-0.131l0.34-2.807-0.36-2.872c0-0.076-0.060-0.133-0.12-0.133zM0.36 17.404c-0.080 0-0.121 0.049-0.139 0.125l-0.221 1.776 0.22 1.744c0 0.073 0.060 0.125 0.12 0.125s0.119-0.060 0.139-0.139l0.28-1.759-0.28-1.779c0-0.081-0.059-0.12-0.12-0.12zM2.799 15.74c-0.081 0-0.16 0.060-0.16 0.139l-0.28 3.417 0.3 3.277c0 0.080 0.060 0.16 0.159 0.16 0.081 0 0.14-0.081 0.161-0.16l0.339-3.299-0.339-3.397c-0.021-0.080-0.081-0.16-0.161-0.16zM4.077 15.599c-0.1 0-0.18 0.080-0.2 0.18l-0.257 3.52 0.28 3.392c0.021 0.103 0.1 0.184 0.199 0.184 0.1 0 0.18-0.081 0.2-0.2l0.32-3.376-0.32-3.497c0-0.1-0.080-0.18-0.18-0.18zM5.617 16.079c-0.007-0.12-0.1-0.199-0.212-0.199-0.12 0-0.211 0.080-0.219 0.199l-0.289 3.24 0.267 3.417c0 0.12 0.1 0.209 0.212 0.209 0.099 0 0.197-0.091 0.197-0.211l0.303-3.417-0.303-3.259zM6.696 13.8c-0.135 0-0.24 0.12-0.24 0.241l-0.28 5.276 0.249 3.417c0 0.12 0.107 0.219 0.24 0.219 0.125 0 0.232-0.12 0.24-0.24l0.279-3.417-0.279-5.296c-0.011-0.139-0.117-0.24-0.24-0.24zM7.944 12.541c-0.14 0-0.26 0.12-0.271 0.259l-0.24 6.496 0.22 3.397c0 0.16 0.12 0.279 0.26 0.279 0.139 0 0.259-0.119 0.28-0.279l0.257-3.397-0.256-6.475c-0.021-0.16-0.14-0.28-0.28-0.28zM9.233 11.943c-0.161 0-0.281 0.119-0.3 0.279l-0.22 7.033 0.22 3.36c0.019 0.159 0.139 0.3 0.3 0.3 0.159 0 0.3-0.14 0.3-0.3l0.26-3.36-0.261-7.033c0-0.16-0.14-0.3-0.3-0.3zM10.892 11.981c0-0.18-0.14-0.32-0.32-0.32-0.159 0-0.32 0.14-0.32 0.32l-0.199 7.255 0.199 3.337c0.021 0.18 0.161 0.32 0.341 0.32s0.32-0.14 0.32-0.32l0.219-3.337-0.219-7.275zM11.891 11.803c-0.18 0-0.34 0.159-0.34 0.339l-0.2 7.096 0.2 3.297c0 0.2 0.16 0.34 0.34 0.34s0.34-0.16 0.34-0.36l0.2-3.299-0.22-7.076c0-0.197-0.16-0.36-0.361-0.36zM13.189 12.001c-0.219 0-0.379 0.18-0.379 0.38l-0.137 6.857 0.18 3.299c0 0.199 0.159 0.369 0.379 0.369 0.199 0 0.361-0.16 0.379-0.38l0.161-3.257-0.18-6.816c-0.016-0.219-0.18-0.38-0.38-0.38zM14.791 10.813c-0.060-0.039-0.14-0.059-0.22-0.059s-0.159 0.020-0.22 0.059c-0.12 0.072-0.199 0.2-0.199 0.34v0.081l-0.139 8.064 0.153 3.265v0.011c0.011 0.080 0.040 0.18 0.099 0.24 0.077 0.081 0.189 0.139 0.312 0.139 0.107 0 0.211-0.059 0.279-0.12 0.077-0.080 0.121-0.18 0.121-0.3l0.020-0.32 0.156-2.937-0.18-8.115c0-0.139-0.081-0.257-0.18-0.319zM16.132 10.084c-0.060-0.060-0.12-0.081-0.2-0.081-0.099 0-0.199 0.021-0.279 0.081-0.1 0.081-0.159 0.2-0.159 0.32v0.039l-0.183 8.812 0.101 1.62 0.081 1.58c0 0.219 0.197 0.419 0.437 0.419 0.241 0 0.44-0.2 0.44-0.439l0.2-3.219-0.2-8.849c0-0.16-0.099-0.295-0.22-0.369zM28.064 15.033c-0.54 0-1.060 0.115-1.519 0.309-0.32-3.539-3.28-6.315-6.917-6.315-0.879 0-1.74 0.18-2.519 0.479-0.3 0.12-0.36 0.24-0.38 0.479v12.491c0.021 0.24 0.2 0.44 0.44 0.46h10.913c2.159 0.021 3.917-1.717 3.917-3.896s-1.759-3.936-3.917-3.936z"></path>
</symbol>
<symbol id="shazam" viewBox="0 0 32 32">
<path fill="#08f" style="fill: var(--color4, #08f)" d="M16 0c-8.836 0-16.001 7.161-16.001 16 0 8.833 7.165 16 16.001 16s16-7.167 16-16c0-8.839-7.164-16-16-16zM13.163 22.315c-1.716 0-3.431-0.568-4.748-1.708-1.619-1.399-2.579-3.305-2.705-5.365-0.12-1.999 0.56-3.925 1.915-5.423 1.523-1.684 4.252-4.3 4.367-4.412 0.74-0.709 1.913-0.681 2.621 0.060 0.707 0.743 0.683 1.919-0.059 2.628-0.028 0.027-2.748 2.635-4.183 4.219-0.677 0.752-1.019 1.711-0.959 2.703 0.065 1.052 0.571 2.039 1.427 2.781 1.125 0.973 3.347 1.188 4.737-0.057 0.825-0.745 1.829-1.836 1.84-1.848 0.693-0.756 1.867-0.804 2.62-0.108 0.753 0.693 0.804 1.869 0.111 2.625-0.047 0.047-1.136 1.232-2.096 2.096-1.34 1.203-3.115 1.809-4.888 1.809zM24.376 22.183c-1.524 1.683-4.252 4.3-4.368 4.412-0.36 0.341-0.82 0.513-1.28 0.513-0.491 0-0.976-0.193-1.341-0.573-0.708-0.745-0.683-1.919 0.059-2.628 0.028-0.027 2.751-2.636 4.183-4.221 0.677-0.751 1.019-1.711 0.959-2.703-0.064-1.052-0.571-2.039-1.427-2.779-1.125-0.973-3.347-1.191-4.736 0.059-0.828 0.741-1.831 1.835-1.84 1.845-0.695 0.755-1.865 0.805-2.621 0.112-0.752-0.695-0.805-1.872-0.109-2.628 0.045-0.049 1.133-1.235 2.095-2.097 2.639-2.371 6.961-2.417 9.636-0.103 1.619 1.401 2.58 3.307 2.704 5.367 0.123 1.996-0.559 3.927-1.912 5.424z"></path>
</symbol>
<symbol id="spotify" viewBox="0 0 32 32">
<path fill="#1ed760" style="fill: var(--color6, #1ed760)" d="M16 0c-8.8 0-16 7.2-16 16s7.2 16 16 16 16-7.2 16-16-7.12-16-16-16zM23.361 23.12c-0.32 0.479-0.88 0.64-1.361 0.32-3.76-2.32-8.48-2.801-14.081-1.521-0.557 0.163-1.039-0.239-1.199-0.719-0.16-0.561 0.24-1.040 0.72-1.2 6.080-1.361 11.36-0.8 15.52 1.76 0.56 0.24 0.639 0.879 0.401 1.36zM25.281 18.72c-0.401 0.56-1.121 0.8-1.683 0.4-4.319-2.64-10.879-3.44-15.919-1.84-0.639 0.16-1.36-0.16-1.52-0.8s0.16-1.361 0.8-1.521c5.84-1.759 13.040-0.877 18 2.161 0.481 0.241 0.72 1.040 0.321 1.6zM25.441 14.24c-5.121-3.040-13.681-3.36-18.561-1.839-0.8 0.239-1.6-0.241-1.84-0.961-0.24-0.801 0.24-1.6 0.96-1.841 5.68-1.68 15.040-1.36 20.961 2.161 0.719 0.4 0.959 1.36 0.559 2.080-0.399 0.561-1.36 0.799-2.079 0.4z"></path>
</symbol>
<symbol id="telegram" viewBox="0 0 32 32">
<path fill="#2ca5e0" style="fill: var(--color7, #2ca5e0)" d="M31.88 5.053l-4.813 22.733c-0.333 1.613-1.307 2-2.667 1.253l-7.333-5.427-3.547 3.427c-0.4 0.4-0.733 0.747-1.467 0.747-0.96 0-0.8-0.36-1.12-1.267l-2.533-8.253-7.267-2.267c-1.573-0.467-1.587-1.547 0.347-2.333l28.347-10.933c1.293-0.573 2.533 0.32 2.053 2.32z"></path>
</symbol>
<symbol id="youtube" viewBox="0 0 32 32">
<path fill="#f00" style="fill: var(--color8, #f00)" d="M31.327 8.273c-0.386-1.353-1.431-2.398-2.756-2.777l-0.028-0.007c-2.493-0.668-12.528-0.668-12.528-0.668s-10.009-0.013-12.528 0.668c-1.353 0.386-2.398 1.431-2.777 2.756l-0.007 0.028c-0.443 2.281-0.696 4.903-0.696 7.585 0 0.054 0 0.109 0 0.163l-0-0.008c-0 0.037-0 0.082-0 0.126 0 2.682 0.253 5.304 0.737 7.845l-0.041-0.26c0.386 1.353 1.431 2.398 2.756 2.777l0.028 0.007c2.491 0.669 12.528 0.669 12.528 0.669s10.008 0 12.528-0.669c1.353-0.386 2.398-1.431 2.777-2.756l0.007-0.028c0.425-2.233 0.668-4.803 0.668-7.429 0-0.099-0-0.198-0.001-0.297l0 0.015c0.001-0.092 0.001-0.201 0.001-0.31 0-2.626-0.243-5.196-0.708-7.687l0.040 0.258zM12.812 20.801v-9.591l8.352 4.803z"></path>
</symbol>
</defs>
</svg>
